<svg width="139" height="38" viewBox="0 0 139 38" fill="none" xmlns="http://www.w3.org/2000/svg">
<path d="M4.74425 -2.86102e-05L12.8408 23.6932H13.1675L21.2641 -2.86102e-05H26.0085L15.5397 29.0909H10.4687L-6.65635e-05 -2.86102e-05H4.74425ZM36.4445 29.5312C34.2948 29.5312 32.4435 29.0719 30.8905 28.1534C29.3469 27.2254 28.1537 25.9233 27.3109 24.2471C26.4776 22.5615 26.0609 20.5871 26.0609 18.3238C26.0609 16.089 26.4776 14.1193 27.3109 12.4147C28.1537 10.7102 29.328 9.37971 30.8337 8.42327C32.3488 7.46683 34.1196 6.98861 36.1462 6.98861C37.3772 6.98861 38.5704 7.19221 39.7257 7.5994C40.881 8.0066 41.9179 8.64581 42.8365 9.51702C43.7551 10.3882 44.4795 11.5199 45.0098 12.9119C45.5401 14.2945 45.8052 15.9754 45.8052 17.9545V19.4602H28.4615V16.2784H41.6433C41.6433 15.161 41.416 14.1714 40.9615 13.3096C40.507 12.4384 39.8677 11.7519 39.0439 11.25C38.2295 10.7481 37.273 10.4971 36.1746 10.4971C34.9814 10.4971 33.9397 10.7907 33.0496 11.3778C32.1689 11.9555 31.4871 12.713 31.0041 13.6505C30.5306 14.5786 30.2939 15.5871 30.2939 16.6761V19.1619C30.2939 20.6202 30.5496 21.8608 31.0609 22.8835C31.5818 23.9062 32.3062 24.6875 33.2342 25.2272C34.1623 25.7575 35.2465 26.0227 36.4871 26.0227C37.292 26.0227 38.0259 25.9091 38.6888 25.6818C39.3516 25.445 39.9246 25.0947 40.4075 24.6307C40.8905 24.1666 41.2598 23.5937 41.5155 22.9119L45.5354 23.6363C45.2134 24.82 44.6357 25.857 43.8024 26.7471C42.9785 27.6278 41.9416 28.3144 40.6916 28.8068C39.4511 29.2897 38.0354 29.5312 36.4445 29.5312ZM59.281 29.5312C57.1314 29.5312 55.2801 29.0719 53.727 28.1534C52.1835 27.2254 50.9903 25.9233 50.1475 24.2471C49.3142 22.5615 48.8975 20.5871 48.8975 18.3238C48.8975 16.089 49.3142 14.1193 50.1475 12.4147C50.9903 10.7102 52.1645 9.37971 53.6702 8.42327C55.1854 7.46683 56.9562 6.98861 58.9827 6.98861C60.2138 6.98861 61.407 7.19221 62.5623 7.5994C63.7176 8.0066 64.7545 8.64581 65.6731 9.51702C66.5916 10.3882 67.3161 11.5199 67.8464 12.9119C68.3767 14.2945 68.6418 15.9754 68.6418 17.9545V19.4602H51.2981V16.2784H64.4799C64.4799 15.161 64.2526 14.1714 63.7981 13.3096C63.3435 12.4384 62.7043 11.7519 61.8804 11.25C61.0661 10.7481 60.1096 10.4971 59.0111 10.4971C57.8179 10.4971 56.7763 10.7907 55.8861 11.3778C55.0054 11.9555 54.3236 12.713 53.8407 13.6505C53.3672 14.5786 53.1304 15.5871 53.1304 16.6761V19.1619C53.1304 20.6202 53.3861 21.8608 53.8975 22.8835C54.4183 23.9062 55.1428 24.6875 56.0708 25.2272C56.9988 25.7575 58.0831 26.0227 59.3236 26.0227C60.1286 26.0227 60.8625 25.9091 61.5253 25.6818C62.1882 25.445 62.7611 25.0947 63.2441 24.6307C63.727 24.1666 64.0964 23.5937 64.352 22.9119L68.3719 23.6363C68.05 24.82 67.4723 25.857 66.639 26.7471C65.8151 27.6278 64.7782 28.3144 63.5282 28.8068C62.2876 29.2897 60.8719 29.5312 59.281 29.5312ZM72.7142 37.2727V7.2727H76.8619V10.8096H77.217C77.4632 10.3551 77.8183 9.82952 78.2824 9.23293C78.7464 8.63633 79.3903 8.1155 80.2142 7.67043C81.038 7.21588 82.127 6.98861 83.4812 6.98861C85.2426 6.98861 86.8145 7.43368 88.1971 8.32384C89.5797 9.21399 90.664 10.4971 91.45 12.1733C92.2454 13.8494 92.6431 15.8664 92.6431 18.2244C92.6431 20.5824 92.2502 22.6041 91.4642 24.2897C90.6782 25.9659 89.5986 27.2585 88.2255 28.1676C86.8524 29.0672 85.2852 29.517 83.5238 29.517C82.1981 29.517 81.1138 29.2945 80.271 28.8494C79.4377 28.4043 78.7842 27.8835 78.3108 27.2869C77.8373 26.6903 77.4727 26.16 77.217 25.696H76.9613V37.2727H72.7142ZM76.8761 18.1818C76.8761 19.7159 77.0986 21.0606 77.5437 22.2159C77.9888 23.3712 78.6327 24.2755 79.4755 24.9289C80.3183 25.5729 81.3505 25.8949 82.5721 25.8949C83.8411 25.8949 84.9017 25.5587 85.7539 24.8863C86.6062 24.2045 87.2502 23.2812 87.6858 22.1164C88.1308 20.9517 88.3534 19.6401 88.3534 18.1818C88.3534 16.7424 88.1356 15.4498 87.7 14.3039C87.2738 13.1581 86.6299 12.2538 85.7681 11.5909C84.9159 10.928 83.8505 10.5966 82.5721 10.5966C81.3411 10.5966 80.2994 10.9138 79.4471 11.5483C78.6043 12.1827 77.9651 13.0682 77.5295 14.2045C77.0939 15.3409 76.8761 16.6666 76.8761 18.1818ZM106.165 29.5312C104.015 29.5312 102.164 29.0719 100.611 28.1534C99.0675 27.2254 97.8744 25.9233 97.0316 24.2471C96.1982 22.5615 95.7816 20.5871 95.7816 18.3238C95.7816 16.089 96.1982 14.1193 97.0316 12.4147C97.8744 10.7102 99.0486 9.37971 100.554 8.42327C102.069 7.46683 103.84 6.98861 105.867 6.98861C107.098 6.98861 108.291 7.19221 109.446 7.5994C110.602 8.0066 111.639 8.64581 112.557 9.51702C113.476 10.3882 114.2 11.5199 114.73 12.9119C115.261 14.2945 115.526 15.9754 115.526 17.9545V19.4602H98.1821V16.2784H111.364C111.364 15.161 111.137 14.1714 110.682 13.3096C110.228 12.4384 109.588 11.7519 108.765 11.25C107.95 10.7481 106.994 10.4971 105.895 10.4971C104.702 10.4971 103.66 10.7907 102.77 11.3778C101.89 11.9555 101.208 12.713 100.725 13.6505C100.251 14.5786 100.015 15.5871 100.015 16.6761V19.1619C100.015 20.6202 100.27 21.8608 100.782 22.8835C101.302 23.9062 102.027 24.6875 102.955 25.2272C103.883 25.7575 104.967 26.0227 106.208 26.0227C107.013 26.0227 107.747 25.9091 108.409 25.6818C109.072 25.445 109.645 25.0947 110.128 24.6307C110.611 24.1666 110.98 23.5937 111.236 22.9119L115.256 23.6363C114.934 24.82 114.356 25.857 113.523 26.7471C112.699 27.6278 111.662 28.3144 110.412 28.8068C109.172 29.2897 107.756 29.5312 106.165 29.5312ZM129.002 29.5312C126.852 29.5312 125.001 29.0719 123.448 28.1534C121.904 27.2254 120.711 25.9233 119.868 24.2471C119.035 22.5615 118.618 20.5871 118.618 18.3238C118.618 16.089 119.035 14.1193 119.868 12.4147C120.711 10.7102 121.885 9.37971 123.391 8.42327C124.906 7.46683 126.677 6.98861 128.703 6.98861C129.934 6.98861 131.128 7.19221 132.283 7.5994C133.438 8.0066 134.475 8.64581 135.394 9.51702C136.312 10.3882 137.037 11.5199 137.567 12.9119C138.097 14.2945 138.362 15.9754 138.362 17.9545V19.4602H121.019V16.2784H134.201C134.201 15.161 133.973 14.1714 133.519 13.3096C133.064 12.4384 132.425 11.7519 131.601 11.25C130.787 10.7481 129.83 10.4971 128.732 10.4971C127.539 10.4971 126.497 10.7907 125.607 11.3778C124.726 11.9555 124.044 12.713 123.561 13.6505C123.088 14.5786 122.851 15.5871 122.851 16.6761V19.1619C122.851 20.6202 123.107 21.8608 123.618 22.8835C124.139 23.9062 124.863 24.6875 125.791 25.2272C126.719 25.7575 127.804 26.0227 129.044 26.0227C129.849 26.0227 130.583 25.9091 131.246 25.6818C131.909 25.445 132.482 25.0947 132.965 24.6307C133.448 24.1666 133.817 23.5937 134.073 22.9119L138.093 23.6363C137.771 24.82 137.193 25.857 136.36 26.7471C135.536 27.6278 134.499 28.3144 133.249 28.8068C132.008 29.2897 130.593 29.5312 129.002 29.5312Z" fill="white"/>
</svg>
