<svg width="85" height="85" viewBox="0 0 85 85" fill="none" xmlns="http://www.w3.org/2000/svg">
<path fill-rule="evenodd" clip-rule="evenodd" d="M39.7185 0.0161032C27.6772 0.866327 16.8153 6.51826 9.28407 15.8524C4.0534 22.3355 0.91123 30.0614 0.083838 38.4741C-0.0282407 39.6131 -0.027819 45.4084 0.084344 46.5418C0.599366 51.7451 2.02375 56.7441 4.29805 61.3306C6.46271 65.6961 9.09551 69.3188 12.6164 72.7764C16.0475 76.1458 19.3871 78.5354 23.5687 80.6132C28.381 83.0042 33.2859 84.3764 38.8751 84.8952C40.5605 85.0516 44.6761 85.0291 46.4351 84.8537C54.7941 84.0206 62.2147 81.0685 68.6869 76.0014C70.6913 74.4321 73.628 71.5955 75.1568 69.7518C78.6277 65.5662 81.2038 60.9557 82.8571 55.97C83.9706 52.6124 84.6395 49.2789 84.9268 45.6555C85.0758 43.7776 84.9856 39.3364 84.7624 37.5549C83.9023 30.6912 81.7245 24.7165 78.0502 19.1399C71.3728 9.00577 60.7902 2.22929 48.8264 0.426907C46.7417 0.112793 45.6177 0.0331212 42.9231 0.00848316C41.4157 -0.00531753 39.9736 -0.00193087 39.7185 0.0161032ZM44.8913 0.598272C54.402 0.997307 64.349 5.3027 71.3855 12.066C78.8076 19.1997 83.1705 28.0832 84.2989 38.3593C84.5081 40.2643 84.508 44.7524 84.2988 46.6566C83.6072 52.9507 81.7066 58.6861 78.5752 63.9286C71.9766 74.9761 60.5738 82.4978 47.9688 84.1176C44.1326 84.6105 39.7673 84.5648 36.05 83.9929C23.9101 82.1249 12.9887 74.8317 6.61206 64.3345C3.36819 58.9945 1.48014 53.492 0.706048 47.1223C0.521358 45.6023 0.449 40.9498 0.583933 39.2621C1.28196 30.5267 4.44656 22.7154 10.1081 15.7533C11.2543 14.3438 14.1358 11.4465 15.5835 10.2481C21.9701 4.9609 29.8217 1.61724 37.8631 0.760071C38.5821 0.683447 39.8534 0.593446 40.6883 0.560003C42.1712 0.500651 42.6754 0.505223 44.8913 0.598272ZM37.6737 3.47305C36.1085 3.66863 34.8097 3.84685 34.7874 3.86921C34.7652 3.89156 34.7744 4.26646 34.8081 4.70233C34.8731 5.54451 35.024 5.80511 35.1032 5.21219C35.1557 4.81925 35.3339 4.50819 35.6084 4.33047C35.8279 4.18832 37.1075 3.99341 37.1935 4.089C37.2257 4.12465 37.4128 5.49676 37.6095 7.13811C38.0143 10.5156 38.0189 10.452 37.3574 10.6308C37.1717 10.681 37.0198 10.7587 37.0198 10.8035C37.0198 10.8482 37.0482 10.8844 37.0831 10.8837C37.3801 10.8781 39.9916 10.5437 40.0576 10.5028C40.2069 10.4101 40.0678 10.3134 39.8463 10.3559C39.4773 10.4267 39.139 10.2248 39.0491 9.87996C38.9607 9.54095 38.2652 3.93355 38.3065 3.89224C38.3206 3.87801 38.6745 3.8405 39.0929 3.80875C40.047 3.73645 40.312 3.84728 40.5841 4.43266C40.8185 4.93719 40.804 4.91874 40.8934 4.82552C40.989 4.72578 40.7207 3.15784 40.604 3.13447C40.5576 3.12515 39.2389 3.27755 37.6737 3.47305ZM44.9471 3.29643C44.3154 3.48109 43.8407 3.76947 43.338 4.27408C42.5131 5.10229 42.2016 6.01297 42.2704 7.39482C42.3048 8.08434 42.3471 8.25664 42.6166 8.80401C43.1928 9.97478 44.1603 10.6488 45.4348 10.7677C47.1234 10.9253 48.5763 9.95684 49.1833 8.26917C49.436 7.56635 49.4317 6.19339 49.1747 5.5346C48.7916 4.55272 47.8472 3.60733 46.986 3.34376C46.5057 3.19687 45.3776 3.17062 44.9471 3.29643ZM47.036 3.91289C47.5225 4.21414 47.9191 4.83932 48.0551 5.51945C48.2563 6.5252 48.1122 8.13227 47.7465 8.96251C47.0961 10.4385 45.2989 10.8601 44.2565 9.78132C43.7176 9.22371 43.5129 8.56169 43.5149 7.38347C43.5182 5.47195 44.1333 4.10949 45.1676 3.72299C45.6967 3.52529 46.5502 3.61207 47.036 3.91289ZM31.5171 4.64484C30.7526 4.92432 30.3575 5.11076 30.3575 5.19187C30.3575 5.27713 30.4029 5.29525 30.5051 5.25071C31.1151 4.98486 31.4076 5.15343 31.707 5.94329C32.6165 8.34342 32.9955 9.52537 33.0335 10.0805C33.0719 10.6438 33.0599 10.6942 32.791 11.096C32.2829 11.8551 31.1633 12.3499 30.413 12.1471C29.8834 12.0039 29.6516 11.7931 29.3134 11.1471C29.0104 10.5681 27.8196 7.38263 27.7042 6.8422C27.6542 6.60801 27.683 6.52952 27.8987 6.31303C28.0379 6.17324 28.2117 6.05886 28.2848 6.05886C28.3579 6.05886 28.4178 6.00171 28.4178 5.93186C28.4178 5.86201 28.393 5.80486 28.3628 5.80486C28.3324 5.80486 27.7157 6.0167 26.9923 6.27561C26.2689 6.53452 25.6296 6.76193 25.5716 6.7809C25.5136 6.79995 25.4662 6.85515 25.4662 6.90358C25.4662 6.96022 25.6269 6.97267 25.916 6.93863C26.3287 6.88986 26.3798 6.90333 26.5347 7.10102C26.6277 7.21956 26.8853 7.82416 27.1074 8.44452C28.0856 11.1776 28.3361 11.7422 28.7584 12.1661C29.0427 12.4516 29.2836 12.6034 29.6035 12.6989C30.1536 12.8629 30.4221 12.8643 31.0868 12.707C32.654 12.3359 33.5566 11.4392 33.5598 10.2499C33.5616 9.61106 33.517 9.44892 32.7535 7.31608C32.4092 6.35443 32.1042 5.45002 32.0755 5.30626C32.0103 4.9791 32.1895 4.6848 32.5437 4.53757C32.7957 4.43275 32.8691 4.32734 32.7399 4.25588C32.7051 4.23658 32.1549 4.41158 31.5171 4.64484ZM56.5008 5.88114C56.5008 5.92314 56.6339 6.03634 56.7966 6.13269C57.3773 6.47669 57.3734 6.50539 56.4564 8.65559C55.1484 11.7226 54.8583 12.3115 54.6087 12.4068C54.4682 12.4604 54.3167 12.4604 54.1761 12.4068C53.8937 12.299 53.6963 12.3017 53.7331 12.4128C53.7777 12.547 56.5204 13.693 56.6018 13.6113C56.6408 13.5721 56.5328 13.4475 56.3617 13.3343C55.8759 13.013 55.8416 12.9057 56.0455 12.3449C56.1428 12.0774 56.6712 10.8168 57.2199 9.54349C58.3335 6.95887 58.3797 6.89325 58.9758 7.05412C59.3687 7.16021 59.6035 7.05039 59.2755 6.91416C59.1641 6.86785 58.536 6.59937 57.8798 6.31743C56.6704 5.79792 56.5008 5.74424 56.5008 5.88114ZM60.9704 7.69174C60.9704 7.75711 61.0517 7.88318 61.151 7.97191C61.3765 8.17333 61.6415 8.74153 61.6409 9.0222C61.6403 9.24055 59.0182 13.2109 58.5236 13.7424C58.2254 14.0626 58.0889 14.0793 57.6591 13.848C57.4109 13.7144 57.3441 13.7039 57.3441 13.7983C57.3441 13.9567 59.3416 15.3143 59.4104 15.2026C59.4394 15.1555 59.3278 14.9889 59.1626 14.8325C58.9973 14.6759 58.8637 14.4952 58.8656 14.4309C58.8716 14.2319 59.1137 13.8407 60.4222 11.9148C61.5668 10.2302 61.6925 10.0744 61.7427 10.2784C61.7733 10.4024 61.8992 11.6469 62.0226 13.0439C62.3719 16.9971 62.4343 17.5312 62.5472 17.5312C62.6027 17.5312 63.4325 16.3692 64.3914 14.9489C65.3502 13.5286 66.2322 12.2617 66.3513 12.1337C66.6001 11.8662 66.8691 11.8386 67.2165 12.0446C67.4513 12.1838 67.6148 12.1619 67.5177 12.0041C67.3997 11.8126 65.5332 10.6155 65.4412 10.6724C65.3733 10.7146 65.4389 10.8161 65.6434 10.9854C65.9845 11.2677 66.0253 11.5013 65.8073 11.9246C65.6607 12.2093 63.5488 15.3403 63.3822 15.5199C63.3079 15.6 63.2186 14.8752 63.0066 12.4719C62.8537 10.7375 62.7072 9.17307 62.6812 8.99536C62.6379 8.70072 62.5695 8.62909 61.9074 8.18493C60.9477 7.54112 60.9704 7.55306 60.9704 7.69174ZM21.6664 9.11762C20.5791 9.82205 19.4711 10.5363 19.2044 10.7049C18.9378 10.8734 18.7202 11.0496 18.721 11.0963C18.7219 11.143 18.8939 11.4765 19.1034 11.8374C19.4921 12.507 19.712 12.6897 19.6132 12.2607C19.4565 11.581 19.4627 11.4371 19.661 11.1469C19.7694 10.9883 20.098 10.7068 20.3914 10.5213C20.8419 10.2365 20.9418 10.2023 21.0336 10.3016C21.0934 10.3663 21.4964 10.9717 21.9293 11.6469C22.3621 12.3221 23.0693 13.422 23.5009 14.0911C23.9612 14.8049 24.2855 15.3956 24.2855 15.5205C24.2855 15.6539 24.1755 15.8374 23.9903 16.0127C23.6768 16.3096 23.6355 16.3882 23.793 16.3882C23.9916 16.3882 26.4041 14.756 26.3242 14.6757C26.2742 14.6256 26.1481 14.6459 25.9861 14.73C25.6206 14.9197 25.4455 14.898 25.1919 14.6314C25.0701 14.5034 24.2808 13.3333 23.4378 12.0313C22.3298 10.3201 21.9261 9.6307 21.9808 9.54358C22.0225 9.47737 22.2993 9.27577 22.596 9.09569C23.2959 8.67083 23.7244 8.65051 24.1461 9.0222C24.4521 9.29195 24.6716 9.35663 24.5942 9.15419C24.549 9.03591 23.701 7.83686 23.6625 7.83686C23.6521 7.83686 22.7538 8.41319 21.6664 9.11762ZM16.8053 12.6865C15.8039 13.5641 15.0089 14.3115 15.0089 14.3756C15.0089 14.4918 15.1878 14.445 15.4075 14.2715C15.7266 14.0195 16.0584 14.055 16.3952 14.3774C17.0638 15.0173 20.1614 18.5507 20.2044 18.7225C20.2529 18.9163 20.0362 19.4362 19.907 19.4362C19.8668 19.4362 19.8121 19.4934 19.7853 19.5632C19.6815 19.8349 19.9826 19.6674 20.5847 19.1187C20.9296 18.8043 21.4345 18.3523 21.7065 18.1141C22.2465 17.6411 22.3009 17.3522 21.7835 17.7047C21.4046 17.9629 21.1279 17.9682 20.887 17.7217C20.5443 17.3712 17.5631 14.0647 17.2539 13.692C17.0859 13.4897 16.9485 13.2682 16.9485 13.1997C16.9485 13.0355 17.0986 12.7489 17.3027 12.5236C17.6446 12.1462 17.289 12.2627 16.8053 12.6865ZM40.4775 12.3796C38.7061 12.5494 38.1975 12.6104 37.3595 12.753C24.753 14.9 14.8054 24.9038 12.6971 37.5549C12.3649 39.5485 12.2841 40.814 12.3359 43.2117C12.3944 45.9164 12.5859 47.3908 13.1958 49.8316C14.516 55.1154 17.1845 59.8087 21.1187 63.7662C25.2795 67.9516 30.4317 70.7747 36.0921 71.9707C40.4218 72.8856 44.5832 72.8739 48.9879 71.9347C57.5606 70.1065 65.1219 64.3077 69.2377 56.4049C74.7368 45.8465 73.505 33.0242 66.1003 23.7454C64.954 22.309 64.0124 21.3071 62.7221 20.1511C57.6319 15.5907 51.6562 12.9954 44.9049 12.4132C43.978 12.3333 41.182 12.3121 40.4775 12.3796ZM44.1038 12.9173C49.9307 13.2671 55.1426 15.1296 59.9032 18.563C62.4407 20.3931 65.1982 23.236 66.9507 25.8286C69.6211 29.7789 71.2183 33.9686 71.8612 38.7088C72.0099 39.8056 72.0444 40.4883 72.0491 42.4233C72.0547 44.8176 72.0127 45.382 71.6735 47.4609C70.6476 53.7484 67.3541 59.8006 62.5424 64.2408C58.0121 68.4212 52.5043 71.0039 46.2964 71.8585C44.294 72.1343 40.6338 72.1363 38.6643 71.8628C30.5047 70.7297 23.5631 66.6512 18.6757 60.1186C14.5035 54.5421 12.3723 47.2897 12.9008 40.467C13.3776 34.3118 15.5477 28.7702 19.3626 23.9659C20.3085 22.7745 22.625 20.4476 23.8217 19.4866C26.801 17.0941 30.6323 15.0821 34.1525 14.0617C36.2302 13.4594 38.5571 13.0491 40.604 12.9241C42.211 12.8259 42.5694 12.8252 44.1038 12.9173ZM68.8977 13.4212C68.8977 13.4736 68.9704 13.6196 69.0593 13.7458C69.4418 14.2889 69.4414 14.2895 68.1995 15.5007C67.5719 16.113 66.5631 17.0774 65.9578 17.644C64.7384 18.7855 64.5743 18.858 64.1061 18.4625C63.8243 18.2245 63.7283 18.197 63.7683 18.3659C63.8168 18.5705 65.8489 20.6395 65.9436 20.5807C66.0021 20.5444 65.9584 20.4331 65.8218 20.27C65.6912 20.1143 65.6087 19.9111 65.6087 19.7453C65.6087 19.4744 65.9178 19.1287 67.3593 17.7873L67.7184 17.4532L68.2301 17.9579C68.7379 18.4587 68.982 18.8098 68.982 19.0392C68.982 19.1048 68.8848 19.3024 68.7659 19.4784C68.3485 20.0959 68.6958 19.926 69.6102 19.0657C70.5392 18.1914 70.6816 17.901 70.0086 18.2532C69.7967 18.3641 69.599 18.4089 69.4678 18.3758C69.2292 18.3157 68.1033 17.2107 68.1499 17.0823C68.1956 16.9561 70.0488 15.2029 70.1365 15.2029C70.2253 15.2029 71.509 16.5904 71.6567 16.8459C71.8043 17.1014 71.7878 17.6892 71.6234 18.0353C71.5455 18.1992 71.5087 18.3604 71.5414 18.3932C71.6186 18.4708 72.7044 17.3922 72.6738 17.2685C72.6466 17.1585 69.0924 13.396 68.9763 13.3543C68.9331 13.3388 68.8977 13.3689 68.8977 13.4212ZM41.0678 14.4496C30.3879 14.9185 20.8515 21.5695 16.6087 31.508C16.102 32.695 15.4962 34.5514 15.1742 35.9045C14.8986 37.0616 14.8695 37.3401 15.0299 37.2787C15.9338 36.9322 20.6911 35.7654 23.4373 35.2166C35.859 32.7343 49.1796 32.7413 61.5607 35.2365C63.6201 35.6515 66.6371 36.3687 68.4309 36.8697C69.2641 37.1024 69.9627 37.2759 69.9832 37.2554C70.0544 37.1839 69.465 34.8804 69.0633 33.6602C67.62 29.276 65.2899 25.579 61.8863 22.2726C60.6937 21.1141 60.0666 20.5901 58.6934 19.6044C54.4448 16.5552 49.0453 14.6581 44.1038 14.4786C43.4312 14.4542 42.7671 14.4247 42.628 14.4132C42.4888 14.4016 41.7867 14.418 41.0678 14.4496ZM11.8136 17.8638L9.95351 20.1872L10.5802 20.7502C10.9248 21.0599 11.2447 21.2897 11.291 21.261C11.3407 21.2301 11.2729 21.0466 11.1259 20.8139C10.7653 20.2429 10.795 19.9982 11.3123 19.2796C11.552 18.9467 11.7909 18.6742 11.8432 18.6742C11.9572 18.6742 15.8266 21.7571 16.3371 22.2548C16.7479 22.6553 16.7952 22.9269 16.516 23.2831C16.3944 23.4384 16.3642 23.5401 16.4222 23.5984C16.4803 23.6567 16.8237 23.2941 17.487 22.4745C18.1063 21.709 18.4365 21.2349 18.3857 21.1839C18.335 21.133 18.2142 21.2015 18.057 21.3705C17.7778 21.6706 17.5134 21.7093 17.1992 21.4961C16.8168 21.2366 12.5632 17.8121 12.5632 17.7638C12.5632 17.639 13.3095 16.7652 13.533 16.6284C13.8408 16.44 14.3737 16.4284 14.707 16.6028C14.8572 16.6815 14.9836 16.7014 15.031 16.6538C15.0945 16.5901 14.2778 15.9064 13.772 15.6C13.7099 15.5623 12.9897 16.3948 11.8136 17.8638ZM73.8734 18.7909C73.8734 18.8085 73.9303 18.9596 73.9999 19.1268C74.1502 19.4881 74.1605 19.8206 74.0328 20.1886C73.9515 20.4223 73.6511 20.6309 71.7747 21.7556C69.2601 23.2627 69.1354 23.3309 68.8908 23.3309C68.7896 23.3309 68.5816 23.1975 68.4284 23.0346C68.1339 22.721 68.0544 22.6784 68.0544 22.8339C68.0544 23.0102 69.2678 24.9396 69.3787 24.9396C69.5218 24.9396 69.5171 24.8411 69.3642 24.6382C69.194 24.4123 69.2038 23.9777 69.3826 23.8182C69.6552 23.5753 73.6204 21.2212 73.6204 21.3024C73.6204 21.3792 71.4265 27.5685 71.2569 27.9704C71.1488 28.2262 71.1526 28.4109 71.2658 28.4109C71.316 28.4109 72.4913 27.7265 73.8778 26.8899C75.2642 26.0533 76.5499 25.2913 76.735 25.1965C77.2264 24.9448 77.4517 24.9729 77.728 25.3206C77.9714 25.6268 78.09 25.6908 78.09 25.516C78.09 25.4153 77.6382 24.6193 77.1006 23.7729C76.8066 23.3101 76.5559 23.229 76.7832 23.6702C77.0152 24.1207 76.9515 24.4011 76.5576 24.6632C75.6871 25.2423 72.8168 26.9404 72.7959 26.8886C72.783 26.857 73.2859 25.4098 73.9133 23.6726C74.5407 21.9355 75.054 20.4761 75.054 20.4295C75.054 20.2674 74.0834 18.7597 73.9788 18.7593C73.9208 18.7591 73.8734 18.7733 73.8734 18.7909ZM8.51521 22.1909C8.51521 22.2158 8.57846 22.3332 8.65579 22.4516C8.79595 22.6663 8.79444 22.6691 8.2418 23.2105C7.93668 23.5093 7.5996 23.9349 7.49275 24.1562C7.01948 25.1357 7.29103 26.246 8.12947 26.7595C8.48316 26.9761 8.62729 27.0133 9.0993 27.0097C9.7275 27.005 10.0079 26.8822 11.5822 25.9227C12.0862 25.6155 12.6386 25.3262 12.8096 25.28C13.3463 25.1349 13.8677 25.3745 14.132 25.8877C14.4967 26.5957 13.9032 27.7522 12.9677 28.1562C12.5242 28.3478 12.3009 28.3521 11.3929 28.1864C10.8754 28.0921 11.1384 28.3256 12.1842 28.8892C13.1571 29.4134 13.6049 29.5333 13.2915 29.1856C13.2156 29.1014 13.1535 28.9838 13.1535 28.9244C13.1535 28.8649 13.4167 28.5437 13.7382 28.2107C14.4974 27.4248 14.7546 26.8853 14.7531 26.0826C14.7521 25.5978 14.7101 25.4134 14.522 25.0694C14.2123 24.5034 13.659 24.1583 12.9824 24.1091C12.397 24.0666 11.8809 24.2782 10.7006 25.045C8.9572 26.1775 8.29299 26.2614 7.88608 25.4004C7.58426 24.7618 7.98408 23.8903 8.76947 23.4747C9.18456 23.255 9.28829 23.2348 9.78021 23.2776C10.0817 23.304 10.4377 23.3511 10.5713 23.3825C11.0756 23.5009 10.7295 23.212 9.73332 22.683C8.80422 22.1897 8.51521 22.0729 8.51521 22.1909ZM78.7983 27.367C78.7316 27.3911 78.7302 27.4942 78.7932 27.731C78.9684 28.3904 78.9591 28.3963 76.3864 29.2442C72.9535 30.3756 72.8827 30.3952 72.6402 30.2842C72.5262 30.2321 72.3681 30.0379 72.2888 29.8527C72.2015 29.6489 72.1086 29.5402 72.0535 29.5773C71.9927 29.6182 72.2459 30.5115 72.815 32.2632L73.6675 34.8879L74.1289 34.943C74.3826 34.9733 74.8306 35.002 75.1243 35.0065C75.8172 35.0174 75.7848 34.8661 75.048 34.6499C74.0665 34.3621 73.854 34.1013 73.3594 32.5779C73.145 31.9177 73.0981 31.6721 73.1654 31.5619C73.2494 31.4244 75.5964 30.5466 75.9151 30.5335C76.0261 30.5289 76.1307 30.7512 76.3701 31.501C76.7409 32.6626 76.7167 32.9215 76.2113 33.1946C75.9366 33.343 75.7819 33.5774 75.9606 33.5746C75.9954 33.574 76.5332 33.4114 77.1559 33.2132C78.4122 32.8133 78.631 32.6442 77.8923 32.6442C77.3966 32.6442 77.2459 32.5558 77.05 32.1494C76.8992 31.8365 76.4488 30.3671 76.4933 30.3333C76.5601 30.2825 78.9921 29.5116 79.0856 29.5116C79.1701 29.5116 79.7722 31.2419 79.898 31.8463C79.976 32.2204 79.8306 32.5237 79.445 32.7915C79.1338 33.0075 78.9969 33.2369 79.1792 33.2369C79.3829 33.2369 80.6193 32.7019 80.6149 32.6156C80.5989 32.311 78.8778 27.3382 78.7983 27.367ZM5.48664 28.849C5.26046 29.6129 5.16196 30.0736 5.21374 30.1256C5.26552 30.1776 5.35626 30.0672 5.46513 29.8201C5.73829 29.2002 5.57949 29.186 8.71204 30.1104C9.92374 30.4681 10.5142 30.6786 10.4389 30.7263C10.376 30.7662 8.94016 31.3767 7.24827 32.083L4.17205 33.3672L3.94022 34.0852C3.65416 34.9713 3.57835 35.3536 3.68857 35.3536C3.73453 35.3536 3.81929 35.2391 3.87706 35.0992C4.00566 34.7875 4.47717 34.3595 4.77461 34.2846C4.91149 34.2501 5.2694 34.3109 5.72184 34.4454C6.12184 34.5644 7.31009 34.9172 8.36257 35.2295C9.5461 35.5806 10.3458 35.8624 10.4591 35.9683C10.6174 36.1164 10.6346 36.1962 10.5866 36.5593C10.5456 36.87 10.5578 36.9701 10.6333 36.9449C10.7244 36.9144 11.3778 34.8768 11.3812 34.6127C11.3836 34.4191 11.211 34.5035 11.1216 34.7396C10.9868 35.0954 10.7907 35.2689 10.5229 35.2689C10.2762 35.2689 5.91159 34.0234 5.79538 33.9198C5.76064 33.8888 6.53861 33.524 7.52421 33.1093C11.8352 31.2957 12.6054 30.9542 12.6054 30.8568C12.6054 30.735 12.6652 30.7547 9.31637 29.7698C7.87849 29.3469 6.55598 28.9369 6.37737 28.8585C6.00782 28.6966 5.88874 28.4668 5.95671 28.0466C5.9826 27.8863 5.96708 27.7323 5.92222 27.7044C5.87617 27.6759 5.686 28.1758 5.48664 28.849ZM36.9355 35.0196C36.1238 35.0523 35.3961 35.0836 35.3185 35.0893C35.2206 35.0964 35.0749 35.3656 34.8432 35.9674C34.4585 36.967 34.2918 37.4708 34.3338 37.5067C34.3501 37.5206 35.4961 37.5047 36.8806 37.4714C39.5431 37.4073 39.5411 37.4077 39.5516 37.0046C39.554 36.9115 39.6415 36.4067 39.746 35.8827L39.9361 34.9302L39.1737 34.9452C38.7544 34.9535 37.7472 34.987 36.9355 35.0196ZM40.6993 35.9251C40.6202 36.4722 40.5349 37.0247 40.5098 37.1528L40.464 37.3856L43.064 37.3857L45.6639 37.3858L45.6087 36.3485C45.5783 35.778 45.5498 35.2256 45.5455 35.1207L45.5374 34.9302H43.1903H40.843L40.6993 35.9251ZM46.4951 35.2054C46.522 35.3568 46.5693 35.8678 46.6004 36.3411C46.6315 36.8143 46.6812 37.2409 46.7109 37.2891C46.7447 37.3441 47.7029 37.3992 49.2839 37.437L51.8031 37.4973L51.7455 37.2509C51.5555 36.4377 51.2365 35.3818 51.1557 35.2983C51.0694 35.2091 47.7709 34.9292 46.8142 34.93L46.4463 34.9302L46.4951 35.2054ZM79.6713 35.0755C79.5437 35.0949 79.4394 35.1419 79.4394 35.18C79.4394 35.2609 79.7366 35.3508 80.0099 35.3524C80.1149 35.3531 80.3341 35.4774 80.4971 35.6287C80.7699 35.8822 80.8009 35.9622 80.8905 36.6436C80.944 37.0505 80.9714 37.398 80.9514 37.4161C80.9005 37.4623 75.6021 38.0786 75.1304 38.0932C74.664 38.1077 74.4946 37.9845 74.3768 37.5451C74.2826 37.1944 74.1264 37.0994 74.1264 37.393C74.1264 37.5892 74.353 39.5574 74.4252 39.9891C74.4886 40.3671 74.6324 40.3361 74.6324 39.9445C74.6324 39.5623 74.8048 39.2869 75.0891 39.2152C75.2614 39.1719 80.8693 38.4863 81.0521 38.4863C81.1258 38.4863 81.2298 39.2342 81.2298 39.7639C81.2298 40.272 80.9989 40.6186 80.5368 40.8043C80.3507 40.879 80.1984 40.9908 80.1984 41.0526C80.1984 41.1438 80.3499 41.1379 81.0031 41.0214C81.4457 40.9425 81.8235 40.8623 81.8426 40.843C81.8617 40.8238 81.7281 39.5523 81.5456 38.0174C81.3631 36.4824 81.213 35.179 81.212 35.1207C81.2104 35.0166 80.2452 34.9882 79.6713 35.0755ZM32.7188 35.3171C29.7781 35.6351 29.3949 35.698 29.2305 35.8899C29.0142 36.1423 28.1648 37.6005 28.1648 37.7194C28.1648 37.7872 28.3468 37.8018 28.7762 37.7684C29.1126 37.7422 30.2575 37.6833 31.3207 37.6375C32.3838 37.5917 33.2584 37.5448 33.2642 37.5334C33.27 37.522 33.4745 37.0363 33.7187 36.4542C33.9628 35.8722 34.1833 35.3483 34.2087 35.2901C34.2647 35.1616 34.1343 35.164 32.7188 35.3171ZM52.2012 35.3747C52.202 35.3863 52.3494 35.8722 52.5287 36.4542L52.8549 37.5126L55.3313 37.6115C56.6933 37.6659 57.8246 37.6934 57.8454 37.6725C57.8727 37.6452 57.0899 35.9462 57.05 35.9462C57.0469 35.9462 56.5141 35.8714 55.866 35.78C53.8367 35.4935 52.197 35.3123 52.2012 35.3747ZM26.3095 36.2047C25.2659 36.382 24.0916 36.5965 23.7 36.6812L22.988 36.8352L22.4852 37.4502C22.2087 37.7883 22.0067 38.0894 22.0364 38.1191C22.0661 38.1489 23.0302 38.1101 24.1788 38.0328C25.3275 37.9555 26.4394 37.8926 26.6497 37.8929C26.9929 37.8935 27.0483 37.8654 27.1898 37.6184C27.2765 37.467 27.5522 37.0246 27.8027 36.6351C28.0531 36.2455 28.2465 35.9168 28.2325 35.9045C28.2185 35.8922 27.3531 36.0274 26.3095 36.2047ZM58.5955 36.8951L59.0199 37.6819L59.3838 37.7036C59.5839 37.7155 60.673 37.7834 61.804 37.8545C62.935 37.9256 63.878 37.9661 63.8994 37.9446C63.9208 37.923 63.8231 37.7374 63.6823 37.532L63.4264 37.1584L62.1773 36.8921C61.4903 36.7457 60.3969 36.5303 59.7476 36.4135C59.0982 36.2967 58.4779 36.1803 58.369 36.1547C58.1844 36.1114 58.1995 36.1608 58.5955 36.8951ZM3.50034 37.0681C3.43102 37.284 3.18257 40.0187 3.22811 40.0644C3.31852 40.1552 3.45522 39.999 3.45522 39.805C3.45522 39.4638 3.76397 39.1636 4.11496 39.1635C4.6353 39.1633 9.46463 39.6683 9.78737 39.7566C10.1189 39.8474 10.2862 40.1042 10.2862 40.5222C10.2862 40.6597 10.3208 40.7723 10.3631 40.7723C10.454 40.7723 10.5026 40.4732 10.6245 39.1636C10.6743 38.6281 10.7354 38.0851 10.7603 37.9571C10.8309 37.5939 10.5842 37.6641 10.4908 38.0336C10.4479 38.2038 10.3178 38.4134 10.2019 38.4995C9.99593 38.6522 9.9299 38.65 7.37671 38.4037C5.93883 38.2649 4.59836 38.1288 4.3979 38.1011C3.90109 38.0324 3.70822 37.8205 3.70822 37.3433C3.70822 36.9915 3.57953 36.8212 3.50034 37.0681ZM19.2677 37.6773C16.7652 38.3113 15.8247 38.5928 16.0704 38.6342C16.1672 38.6504 17.1016 38.5857 18.1469 38.4903C19.1921 38.395 20.2201 38.3169 20.4311 38.3169C20.791 38.3169 20.8376 38.2894 21.1829 37.8724C21.8167 37.107 21.8041 37.1308 21.576 37.1373C21.4661 37.1406 20.4273 37.3835 19.2677 37.6773ZM40.3914 38.0841C40.3905 38.1423 40.3148 38.8186 40.2232 39.5869C40.1316 40.3553 40.0564 41.0125 40.0562 41.0474C40.056 41.0824 41.3511 41.1109 42.9343 41.1109H45.813L45.7511 39.6081C45.7172 38.7816 45.672 38.0767 45.6506 38.0418C45.6293 38.0068 44.4377 37.9783 43.0025 37.9783C40.9721 37.9783 40.3928 38.0017 40.3914 38.0841ZM31.4538 38.2372C30.6421 38.272 29.4738 38.3272 28.8575 38.3599L27.7371 38.4193L27.516 38.8549C27.1522 39.572 26.3138 41.4822 26.3479 41.5163C26.3844 41.5531 30.7265 41.3817 31.5225 41.3121C31.8185 41.2863 32.0674 41.2218 32.0829 41.1671C32.0981 41.113 32.3187 40.4114 32.5731 39.6081C32.8274 38.8048 33.0117 38.1535 32.9826 38.1607C32.9535 38.1679 32.2655 38.2024 31.4538 38.2372ZM53.0471 38.2025C53.0493 38.2422 53.2131 38.9413 53.411 39.7563L53.7708 41.2379L56.0424 41.3359C57.2917 41.3897 58.5537 41.4374 58.8466 41.4417C59.477 41.451 59.4897 41.6509 58.7374 39.7139L58.2112 38.3593L57.2506 38.3068C55.0086 38.1842 53.0433 38.1354 53.0471 38.2025ZM59.8857 39.6845C60.2072 40.4458 60.5039 41.1495 60.545 41.2485C60.6141 41.4145 60.7069 41.4332 61.7439 41.4891C62.3621 41.5226 63.5889 41.5964 64.4702 41.6533C65.3515 41.7102 66.0861 41.747 66.1028 41.7351C66.1409 41.7078 65.3247 40.1886 64.7895 39.2906L64.3859 38.6133L62.9522 38.5178C62.1637 38.4653 61.0197 38.395 60.4099 38.3615L59.3014 38.3005L59.8857 39.6845ZM24.159 38.6193C23.2313 38.681 22.2363 38.7553 21.9479 38.7846L21.4234 38.8379L20.6349 40.0802C20.2012 40.7635 19.7649 41.4655 19.6653 41.6401L19.4842 41.9576H19.7637C19.9175 41.9576 20.8555 41.9013 21.8481 41.8325C22.8408 41.7638 24.0026 41.6841 24.4298 41.6556C25.1296 41.6088 25.2122 41.5855 25.2622 41.4208C25.2929 41.3202 25.617 40.6381 25.9824 39.9049C26.3478 39.1718 26.6468 38.5527 26.6468 38.5291C26.6468 38.47 26.1213 38.489 24.159 38.6193ZM47.003 42.4636C47.0306 42.814 47.078 43.6565 47.1081 44.3359L47.1629 45.5712L50.2439 45.6267C51.9385 45.6572 53.337 45.6702 53.3517 45.6553C53.3787 45.6282 53.1586 44.175 52.9114 42.7474L52.7769 41.9708L52.1721 41.923C51.8394 41.8966 50.529 41.8642 49.26 41.8509L46.9526 41.8267L47.003 42.4636ZM34.0567 41.9361L32.9911 41.9625L32.8478 42.5315C32.4792 43.9951 32.1381 45.6409 32.1936 45.6878C32.2428 45.7293 38.3809 45.6113 38.423 45.568C38.4295 45.5614 38.5154 44.813 38.614 43.9049C38.7127 42.9969 38.8125 42.1682 38.8358 42.0634L38.8783 41.8729L37.0003 41.8913C35.9674 41.9015 34.6428 41.9216 34.0567 41.9361ZM53.9715 42.0942C53.9719 42.182 54.1237 43.029 54.3088 43.9763C54.494 44.9236 54.6454 45.7082 54.6454 45.7197C54.6454 45.7312 55.4898 45.7661 56.5218 45.7972C57.5538 45.8283 58.937 45.8783 59.5954 45.9083L60.7925 45.9628L60.4203 44.7011C59.7831 42.541 59.677 42.2698 59.4452 42.2075C59.3322 42.1772 58.4811 42.127 57.554 42.096C56.6268 42.065 55.4414 42.016 54.9195 41.9871C54.0274 41.9377 53.9708 41.9441 53.9715 42.0942ZM28.0383 42.1723C26.9251 42.2304 26.0088 42.282 26.0022 42.287C25.9602 42.319 25.4639 43.6364 25.0771 44.7426L24.6214 46.0461L25.9504 45.9875C29.9532 45.8112 30.8926 45.7654 30.8995 45.7464C30.9367 45.644 31.7918 42.154 31.7915 42.1058C31.7911 42.021 30.4989 42.044 28.0383 42.1723ZM67.6599 42.6561C67.6848 42.7143 68.0759 43.5733 68.5291 44.5649L69.3532 46.368L69.779 46.3429L70.2049 46.3179L70.3008 45.4407C70.3536 44.9582 70.4105 44.1581 70.4273 43.6627L70.4579 42.7619L69.3616 42.6651C67.829 42.5298 67.6054 42.5286 67.6599 42.6561ZM16.0209 42.9358C15.3947 42.9955 14.7749 43.0475 14.6437 43.0513L14.405 43.0583L14.4627 43.9261C14.5352 45.0159 14.7221 46.6086 14.785 46.6718C14.8112 46.698 15.0732 46.6936 15.3674 46.662L15.9021 46.6045L16.4634 45.4875C16.7722 44.8733 17.2179 44.0181 17.4539 43.5874L17.8831 42.8043L17.5212 42.8157C17.3222 42.822 16.647 42.8761 16.0209 42.9358ZM5.7775 44.4935C5.095 45.3982 5.07644 45.46 5.2554 46.2269L5.35272 46.644L5.96573 45.8248C6.3029 45.3742 6.61029 45.0056 6.64892 45.0056C6.68746 45.0056 6.96188 45.1884 7.25873 45.4118C7.5555 45.6353 7.92699 45.9083 8.08418 46.0186L8.3699 46.2192L8.31289 45.8029C8.19314 44.9291 8.20849 44.9528 7.32788 44.285C6.86793 43.9363 6.47401 43.6509 6.45234 43.6509C6.43075 43.6509 6.12706 44.0301 5.7775 44.4935ZM77.445 44.2592C76.988 44.5938 76.6063 44.8716 76.5966 44.8766C76.5622 44.8944 76.3889 46.1199 76.4169 46.1473C76.4326 46.1627 76.8227 45.8957 77.2836 45.5542L78.1217 44.9331L78.7542 45.7828C79.4518 46.7197 79.4514 46.7197 79.56 45.8345L79.6193 45.351L78.9781 44.501C78.6254 44.0335 78.3231 43.6509 78.3063 43.6509C78.2896 43.6509 77.902 43.9247 77.445 44.2592ZM39.4785 47.6514C39.4246 48.3616 39.3559 49.3521 39.3258 49.8528L39.2712 50.7629H42.6573H46.0434V49.9722C46.0434 49.5372 46.0185 48.5466 45.988 47.7708L45.9326 46.3603H42.7546H39.5766L39.4785 47.6514ZM47.2585 47.8736C47.2883 48.6944 47.3347 49.6742 47.3616 50.051L47.4105 50.7361L49.8684 50.7916C53.7838 50.8803 54.0547 50.8743 54.0575 50.6994C54.0588 50.618 53.938 49.6492 53.7889 48.5467L53.5179 46.5422L52.8377 46.4958C52.4636 46.4703 51.0431 46.4341 49.6811 46.4153L47.2045 46.3812L47.2585 47.8736ZM54.8127 46.6308C54.8099 46.8663 55.4316 50.8083 55.4798 50.8603C55.5079 50.8905 56.6884 50.9573 58.1031 51.0087C59.5178 51.0602 60.9924 51.126 61.38 51.155L62.0849 51.2078L62.0278 50.9219C61.9612 50.589 61.0401 46.8351 61.018 46.8071C61.0098 46.7967 60.1134 46.7502 59.026 46.7038C57.9386 46.6574 56.5461 46.5971 55.9315 46.5698C55.044 46.5305 54.8138 46.5431 54.8127 46.6308ZM28.6708 46.6704C28.4157 46.684 27.3534 46.7358 26.3101 46.7854C25.2668 46.835 24.387 46.9025 24.355 46.9354C24.2726 47.0203 23.1048 50.9342 23.1048 51.1257C23.1048 51.2748 23.1645 51.2806 24.1379 51.2258C24.7062 51.1939 26.2143 51.1243 27.4893 51.0712L29.8077 50.9746L29.9083 50.4666C30.0666 49.6669 30.616 47.0156 30.667 46.8048C30.7125 46.6167 30.7031 46.6144 29.9238 46.6299C29.4898 46.6386 28.9259 46.6568 28.6708 46.6704ZM62.3445 46.8111C62.4028 46.9635 62.873 48.6754 63.2412 50.0756C63.3805 50.6056 63.5084 51.0532 63.5254 51.0703C63.5423 51.0873 64.5589 51.1574 65.7842 51.2261C67.0096 51.2947 68.2281 51.3726 68.492 51.3992L68.9718 51.4476L69.2326 50.6302L69.4934 49.8128L69.0134 48.4887C68.7495 47.7605 68.5017 47.1434 68.4628 47.1174C68.4239 47.0915 67.2441 47.0047 65.8409 46.9245C64.4377 46.8444 63.0656 46.7564 62.7919 46.7291C62.3639 46.6863 62.3013 46.6978 62.3445 46.8111ZM6.24994 47.6457L5.62916 48.4889L5.68786 49.1179C5.72016 49.4639 5.77658 49.7469 5.81326 49.7469C5.84995 49.7469 6.14081 49.3858 6.45967 48.9443C6.77854 48.5029 7.05945 48.141 7.08391 48.14C7.10845 48.139 7.48795 48.4045 7.92724 48.7298C8.36661 49.0553 8.75708 49.322 8.79494 49.3225C8.83289 49.3231 8.84461 49.2569 8.82109 49.1754C8.79747 49.094 8.75328 48.8177 8.72284 48.5616L8.66743 48.0959L7.85345 47.4951C7.40572 47.1646 7.00143 46.8736 6.95505 46.8484C6.90866 46.8231 6.5914 47.182 6.24994 47.6457ZM76.9408 47.4454L76.0867 48.0959L76.0314 48.5581C76.001 48.8122 75.9533 49.1116 75.9253 49.2235C75.8824 49.3953 76.0004 49.3333 76.6926 48.82C77.1425 48.4863 77.5557 48.1976 77.6106 48.1785C77.6656 48.1593 77.995 48.5308 78.3427 49.0041L78.9748 49.8645L79.0358 49.446C79.1696 48.5283 79.1781 48.5571 78.5071 47.6441C78.1618 47.1741 77.8602 46.7908 77.837 46.7922C77.8138 46.7937 77.4106 47.0876 76.9408 47.4454ZM21.123 47.0514C17.9565 47.2653 16.8418 47.3649 16.7659 47.441C16.6565 47.5509 15.6849 49.8883 15.6262 50.1831C15.5837 50.3963 15.8784 51.4803 16.0218 51.6382C16.0953 51.7192 21.6013 51.3783 21.6814 51.2878C21.7102 51.2553 21.8708 50.7714 22.0384 50.2126C22.2058 49.6538 22.5117 48.6918 22.718 48.0748L23.093 46.9529L22.6562 46.9651C22.4159 46.9718 21.726 47.0107 21.123 47.0514ZM6.67599 50.8609L6.05951 51.7136L6.15236 52.3142C6.20339 52.6446 6.25542 52.9252 6.26799 52.9378C6.28055 52.9504 6.57007 52.5823 6.91136 52.1197C7.26851 51.6357 7.57051 51.3024 7.62297 51.3345C7.67306 51.3653 8.04767 51.635 8.4555 51.9339C8.86325 52.2328 9.2177 52.4565 9.24317 52.4311C9.28652 52.3875 9.14307 51.2742 9.08851 51.2308C8.68421 50.9091 7.40294 50.002 7.35656 50.0046C7.32122 50.0066 7.01501 50.3919 6.67599 50.8609ZM76.4734 50.6174L75.6581 51.2286L75.5669 51.7436C75.4157 52.597 75.4002 52.5938 76.3308 51.9054L77.186 51.2728L77.8267 52.1162C78.5328 53.0452 78.5369 53.0455 78.6257 52.16L78.6766 51.6519L78.0671 50.8538C77.7318 50.4148 77.4196 50.0445 77.3732 50.0309C77.3268 50.0173 76.9219 50.2812 76.4734 50.6174ZM34.2813 51.7943C32.52 51.8345 31.0498 51.8967 31.0141 51.9325C30.9626 51.9843 30.4229 55.2858 30.2523 56.5937L30.2151 56.8788L30.9399 56.8282C31.3385 56.8005 32.9834 56.7525 34.5952 56.7217C37.5024 56.6662 37.5258 56.6643 37.5259 56.4872C37.526 56.389 37.6014 55.3371 37.6936 54.1496C37.9015 51.4728 37.9033 51.6914 37.6734 51.7077C37.569 51.7151 36.0426 51.754 34.2813 51.7943ZM39.1801 52.1388C39.1126 52.8121 38.959 55.6486 38.9592 56.2157L38.9595 56.7154L39.8581 56.6602C40.3523 56.6298 41.9652 56.605 43.4423 56.605H46.1278L46.127 54.5941C46.1267 53.4882 46.1024 52.3833 46.0731 52.1388L46.0199 51.6943H42.6223H39.2246L39.1801 52.1388ZM47.4237 52.2624C47.4505 52.5785 47.4965 53.698 47.5259 54.7499L47.5793 56.6626L51.1295 56.7154C53.0821 56.7444 54.6966 56.7511 54.7174 56.7303C54.7519 56.6955 54.3533 52.8018 54.2491 52.1573L54.2037 51.8761L53.6023 51.8305C53.2716 51.8054 51.7351 51.7629 50.1879 51.7362L47.375 51.6874L47.4237 52.2624ZM55.6029 52.1307C55.6314 52.2865 55.7703 53.3665 55.9118 54.5306C56.0532 55.6948 56.1827 56.6876 56.1995 56.7369C56.2192 56.7949 57.2801 56.8632 59.2116 56.9308C60.8515 56.9882 62.4305 57.0579 62.7203 57.0858C63.2091 57.1327 63.2474 57.124 63.2474 56.9658C63.2474 56.8052 62.3349 52.1882 62.2958 52.151C62.2858 52.1414 61.215 52.0921 59.9162 52.0415C58.6175 51.9909 57.1041 51.9265 56.5531 51.8984L55.5513 51.8474L55.6029 52.1307ZM25.5083 52.0924C24.0705 52.1591 22.8628 52.2444 22.8246 52.2819C22.7086 52.396 21.5477 57.1019 21.6182 57.1726C21.6396 57.1942 22.4098 57.1715 23.3298 57.1225C24.2497 57.0734 25.7044 57.0115 26.5625 56.9849C27.4206 56.9584 28.2781 56.9177 28.4682 56.8945L28.8136 56.8524L29.2077 54.4639C29.4244 53.1501 29.601 52.0467 29.6002 52.0118C29.598 51.9277 28.6576 51.9462 25.5083 52.0924ZM63.7534 52.1009C63.7534 52.1395 63.9211 52.9305 64.1261 53.8588C64.3311 54.7871 64.5655 55.875 64.6471 56.2765L64.7954 57.0063L65.5183 57.0551C66.2235 57.1028 66.2458 57.0986 66.4261 56.8805C66.6698 56.5857 67.8921 54.1927 68.3068 53.1986C68.5967 52.5034 68.6178 52.4081 68.4918 52.3627C68.4136 52.3345 67.4577 52.2668 66.3677 52.2122C65.2777 52.1576 64.2436 52.0944 64.0696 52.0719C63.8958 52.0494 63.7534 52.0624 63.7534 52.1009ZM18.7712 52.4636C17.4778 52.5499 16.4058 52.6343 16.389 52.6512C16.293 52.7475 17.5384 55.3482 18.3025 56.647L18.738 57.3872L19.4245 57.3272C19.8021 57.2943 20.1193 57.2593 20.1294 57.2494C20.1395 57.2395 20.3546 56.4141 20.6073 55.4153C20.8601 54.4165 21.1459 53.3143 21.2425 52.966C21.3392 52.6177 21.4182 52.3224 21.4182 52.3098C21.4182 52.2973 21.3518 52.2914 21.2706 52.2969C21.1894 52.3024 20.0647 52.3775 18.7712 52.4636ZM7.51468 54.0955C7.32282 54.6246 7.16537 55.0913 7.16487 55.1327C7.16327 55.2444 7.62221 56.2614 7.67542 56.264C7.70055 56.2653 7.86804 55.8568 8.04767 55.3561C8.2273 54.8555 8.39875 54.4171 8.4286 54.3818C8.45845 54.3464 8.91276 54.4714 9.43807 54.6596C9.96346 54.8478 10.4107 54.9842 10.4319 54.9628C10.4533 54.9415 10.3438 54.6835 10.1887 54.3896L9.90671 53.8551L8.93688 53.4949C8.40347 53.2968 7.94377 53.1344 7.91526 53.1341C7.88676 53.1339 7.70654 53.5664 7.51468 54.0955ZM75.7587 53.4979L74.819 53.8481L74.5529 54.3898C74.4065 54.6878 74.3021 54.947 74.3209 54.9658C74.3396 54.9846 74.7843 54.8456 75.3091 54.6569C75.8339 54.4681 76.2893 54.3435 76.3211 54.3798C76.3529 54.4162 76.5223 54.8555 76.6975 55.3561C76.8727 55.8568 77.0294 56.2663 77.0458 56.2663C77.0966 56.2663 77.584 55.261 77.584 55.1562C77.584 54.9299 76.8788 53.1342 76.7925 53.1407C76.7408 53.1446 76.2756 53.3054 75.7587 53.4979ZM8.86857 57.0071C8.67283 57.5542 8.51327 58.0263 8.51394 58.056C8.51462 58.0856 8.63513 58.3671 8.78162 58.6815L9.04803 59.2531L9.41361 58.2541C9.61466 57.7046 9.79235 57.2419 9.80837 57.2257C9.82448 57.2096 10.2494 57.3499 10.7528 57.5373C11.2562 57.7248 11.6947 57.8679 11.7274 57.8554C11.76 57.8429 11.6672 57.585 11.5213 57.2823L11.256 56.732L10.2862 56.3726C9.7528 56.175 9.29571 56.013 9.27041 56.0128C9.24511 56.0125 9.0643 56.46 8.86857 57.0071ZM74.4087 56.381L73.4681 56.7298L73.2028 57.27C73.0569 57.5671 72.9569 57.8298 72.9808 57.8537C73.0155 57.8885 74.1272 57.5174 74.8117 57.2426C74.9238 57.1976 75.019 57.3783 75.3301 58.2262L75.7111 59.2649L75.9729 58.6852C76.1169 58.3664 76.2347 58.0768 76.2347 58.0417C76.2347 57.8345 75.5215 56.0141 75.4436 56.0223C75.3916 56.0278 74.9259 56.1892 74.4087 56.381ZM38.8482 58.1078C38.7786 58.6829 38.5843 63.2016 38.6279 63.2305C38.6479 63.2437 40.372 63.2411 42.4593 63.2245L46.2543 63.1944L46.2287 60.5558C46.2147 59.1047 46.1874 57.8697 46.1682 57.8115C46.1408 57.729 45.3345 57.7056 42.5149 57.7056H38.8969L38.8482 58.1078ZM47.6859 60.4888C47.7197 62.0082 47.753 63.2555 47.7599 63.2607C47.7667 63.2659 49.4706 63.2941 51.5462 63.3234L55.3201 63.3766L55.3195 63.06C55.3192 62.8858 55.2249 61.7336 55.11 60.4996C54.9952 59.2656 54.9005 58.1743 54.8998 58.0746C54.8984 57.8978 54.86 57.8921 53.3593 57.8435C52.5128 57.816 50.8761 57.7784 49.7223 57.76L47.6243 57.7264L47.6859 60.4888ZM31.8191 57.8701C30.8836 57.896 30.103 57.9363 30.0843 57.9596C30.0295 58.0282 29.3921 63.3688 29.4339 63.4097C29.4549 63.4303 31.1893 63.4056 33.2881 63.355C37.0836 63.2635 37.1041 63.262 37.1041 63.0846C37.1041 62.827 37.3431 59.0379 37.4019 58.3618L37.4517 57.7903L35.4859 57.8066C34.4046 57.8155 32.7546 57.8441 31.8191 57.8701ZM56.3499 58.1964C56.3689 58.3688 56.496 59.62 56.6323 60.9767L56.8799 63.4436L58.8364 63.505L60.7928 63.5663L61.1869 63.2421C61.8849 62.6679 63.8377 60.5664 63.8377 60.3896C63.8377 60.2263 63.5054 58.1893 63.474 58.16C63.4653 58.1519 61.9782 58.1025 60.1692 58.0501C58.3603 57.9978 56.7531 57.9388 56.5976 57.9189C56.3167 57.883 56.3153 57.8845 56.3499 58.1964ZM26.0565 58.0539C22.6913 58.1746 21.4074 58.2635 21.3354 58.3804C21.2989 58.4397 21.1863 58.9052 21.0851 59.415L20.9012 60.3418L21.2178 60.7382C21.3919 60.9562 22.1059 61.7013 22.8045 62.3939L24.0747 63.6531L25.332 63.6004C26.0235 63.5713 26.8825 63.5476 27.2409 63.5476H27.8924L27.9507 63.0608C28.0582 62.1628 28.5874 58.3428 28.631 58.1501C28.6707 57.9742 28.6465 57.9606 28.314 57.9727C28.116 57.9799 27.1001 58.0164 26.0565 58.0539ZM10.5025 59.1679C10.4415 59.3183 10.2687 59.7795 10.1186 60.1928L9.84565 60.9443L10.0416 61.3781C10.4098 62.1933 10.3866 62.2022 10.7843 61.0949L11.1455 60.0894L11.9175 60.3716C12.3422 60.5268 12.7966 60.6954 12.9273 60.7461C13.1511 60.833 13.1615 60.8273 13.1061 60.6479C12.9532 60.152 12.6284 59.6414 12.4126 59.5575C12.2867 59.5085 11.8304 59.3394 11.3986 59.1815L10.6134 58.8946L10.5025 59.1679ZM73.1144 59.261L72.1445 59.6212L71.8728 60.1239C71.6057 60.6183 71.5238 60.8932 71.6712 60.8019C71.7124 60.7763 72.164 60.6051 72.6748 60.4214L73.6035 60.0874L73.9613 61.1026C74.1582 61.6611 74.347 62.0872 74.381 62.0496C74.415 62.012 74.5475 61.7432 74.6755 61.4523L74.9082 60.9233L74.5384 59.9074C74.335 59.3486 74.1496 58.8935 74.1264 58.896C74.1032 58.8986 73.6478 59.0627 73.1144 59.261ZM11.7687 62.9488L11.7089 64.0541L12.115 64.5267L12.521 64.9993L12.5794 64.6757C12.6115 64.4976 12.64 64.1377 12.6426 63.8757C12.6453 63.6138 12.6717 63.2778 12.7014 63.129L12.7553 62.8586L13.8149 62.9192L14.8744 62.9799L14.4712 62.5059C14.0238 61.9802 14.0573 61.9912 12.5964 61.8943L11.8286 61.8435L11.7687 62.9488ZM71.8494 61.9098C70.769 61.975 70.7122 61.9965 70.2788 62.5059L69.8755 62.9799L70.935 62.9192L71.9946 62.8586L72.0485 63.129C72.0782 63.2778 72.1046 63.6138 72.1073 63.8757C72.1099 64.1377 72.1384 64.4937 72.1705 64.6668L72.2289 64.9817L72.6353 64.518L73.0418 64.0543L72.9726 62.9755L72.9035 61.8966L72.6084 61.8893C72.446 61.8852 72.1045 61.8944 71.8494 61.9098ZM13.912 64.6994C13.9118 64.9275 13.8894 65.4188 13.8624 65.7913L13.8134 66.4686L14.2104 66.9172C14.4286 67.1638 14.624 67.349 14.6443 67.3285C14.6647 67.3081 14.7149 66.8449 14.7559 66.2993C14.7968 65.7537 14.842 65.2972 14.8564 65.2848C14.8706 65.2726 15.3342 65.2961 15.8865 65.3372C16.4388 65.3783 16.9059 65.3967 16.9245 65.378C16.943 65.3593 16.7568 65.1308 16.5107 64.8703L16.063 64.3964L14.9878 64.3407L13.9125 64.2849L13.912 64.6994ZM69.0974 64.3878C68.6023 64.4345 68.5632 64.4557 68.18 64.8844C67.9599 65.1307 67.7977 65.3502 67.8195 65.3721C67.8414 65.394 68.3111 65.3783 68.8634 65.3372C69.4157 65.2961 69.8769 65.2702 69.8884 65.2797C69.8998 65.2891 69.9456 65.7463 69.9903 66.2955C70.0348 66.8447 70.0873 67.3102 70.107 67.3299C70.1265 67.3496 70.3213 67.1638 70.5395 66.9172L70.9365 66.4686L70.8875 65.7913C70.8605 65.4188 70.8381 64.933 70.8379 64.7118L70.8374 64.3096L70.226 64.3243C69.8897 64.3323 69.3819 64.3609 69.0974 64.3878ZM32.9718 64.4982C31.0005 64.5402 29.3582 64.6036 29.3222 64.6391C29.2687 64.6918 29.0114 66.5537 29.0089 66.9075C29.0071 67.1549 31.8759 68.4345 33.8711 69.0765C35.0966 69.4707 36.6538 69.8715 36.7134 69.808C36.7326 69.7874 36.7912 68.9134 36.8435 67.8656C36.8957 66.8179 36.9619 65.6082 36.9907 65.1775L37.0429 64.3943L36.7994 64.4081C36.6655 64.4156 34.9431 64.4562 32.9718 64.4982ZM38.5021 65.2621C38.4251 66.5505 38.2821 70.0926 38.3061 70.1158C38.3176 70.1269 38.7824 70.1871 39.339 70.2496C40.6279 70.3944 44.4533 70.3949 45.5343 70.2505C45.9733 70.1918 46.3354 70.1361 46.339 70.1266C46.3427 70.1171 46.3308 68.8235 46.3126 67.2518L46.2796 64.3943H42.4168H38.554L38.5021 65.2621ZM47.8147 65.4244C47.8148 65.9987 47.8397 67.2394 47.8702 68.1814C47.9243 69.8608 47.9289 69.8934 48.1018 69.8575C50.3248 69.3957 52.5609 68.6287 54.8442 67.5449L55.6755 67.1504L55.6258 66.5978C55.5986 66.294 55.5516 65.7154 55.5215 65.3124L55.4668 64.5794L54.4447 64.531C53.8825 64.5045 52.1608 64.4596 50.6185 64.4314L47.8144 64.3801L47.8147 65.4244ZM57.0535 65.3613C57.0848 65.784 57.1347 66.1559 57.1641 66.1875C57.1935 66.2191 57.6196 65.9715 58.1109 65.6371C59.2539 64.8595 59.4082 64.7443 59.363 64.7027C59.3426 64.684 58.8018 64.6515 58.1611 64.6306L56.9964 64.5925L57.0535 65.3613ZM26.2262 64.7276L25.5104 64.7753L26.0575 65.1639C26.3584 65.3776 26.819 65.689 27.081 65.8558L27.5573 66.1592L27.6081 65.7847C27.636 65.5788 27.6821 65.2389 27.7106 65.0293L27.7623 64.6483L27.3522 64.6641C27.1266 64.6728 26.6198 64.7013 26.2262 64.7276ZM16.0815 66.7392C16.0599 66.7767 16.0184 67.2836 15.9893 67.8656L15.9364 68.924L16.3188 69.3374C16.529 69.5648 16.7169 69.7351 16.7361 69.7159C16.7553 69.6966 16.7943 69.32 16.8228 68.879C16.8512 68.4381 16.8929 67.9878 16.9152 67.8785L16.9559 67.6797L18.0223 67.7414L19.0888 67.8032L18.685 67.3287C18.3923 66.9848 18.2081 66.843 18.0154 66.8136C17.441 66.7258 16.1186 66.675 16.0815 66.7392ZM67.2532 66.7574C66.8822 66.7875 66.5345 66.8397 66.4808 66.8734C66.427 66.9072 66.2201 67.1302 66.0209 67.3691L65.6587 67.8033L66.7175 67.742L67.7763 67.6807L67.831 68.0813C67.8611 68.3017 67.8895 68.6957 67.8941 68.957C67.8988 69.2182 67.9272 69.5166 67.9574 69.6199C68.0081 69.7938 68.0426 69.7731 68.4186 69.344L68.8251 68.8803L68.7559 67.8015L68.6869 66.7226L68.3074 66.7127C68.0987 66.7072 67.6243 66.7274 67.2532 66.7574ZM19.0568 69.0318C18.5234 69.1499 18.0716 69.2593 18.0528 69.2748C18.0094 69.3107 18.3869 71.166 18.4723 71.337C18.5394 71.4714 19.4604 72.0611 19.5155 72.0049C19.5333 71.9868 19.4546 71.5564 19.3406 71.0485C19.2266 70.5406 19.1496 70.0824 19.1695 70.0302C19.1894 69.9782 19.5791 69.8655 20.0354 69.78C21.3117 69.5406 21.2965 69.5559 20.6669 69.1473C20.3699 68.9546 20.1044 68.8015 20.0769 68.807C20.0493 68.8125 19.5903 68.9137 19.0568 69.0318ZM64.0869 69.1447C63.4579 69.5529 63.4433 69.5368 64.6512 69.7701C65.0754 69.852 65.4659 69.946 65.5188 69.9788C65.5889 70.0224 65.5585 70.3023 65.4075 71.0047C65.2932 71.536 65.2137 71.9846 65.2307 72.0016C65.2604 72.0316 66.2834 71.4333 66.2834 71.386C66.2834 71.3731 66.3783 70.932 66.4942 70.4056C66.6102 69.8793 66.7051 69.4058 66.7051 69.3534C66.7051 69.3004 66.2839 69.1686 65.7563 69.0565C65.2345 68.9456 64.7678 68.8407 64.7191 68.8234C64.6704 68.806 64.386 68.9507 64.0869 69.1447ZM21.8398 70.7374C20.7458 70.9918 20.7435 70.9926 20.7435 71.1583C20.7435 71.3283 21.1346 73.1158 21.1798 73.1525C21.2619 73.2191 22.1851 73.7923 22.2102 73.7923C22.2266 73.7923 22.1509 73.3828 22.042 72.8822C21.9331 72.3815 21.8431 71.9111 21.8419 71.8367C21.8403 71.7329 22.0507 71.656 22.7464 71.5061C23.2451 71.3986 23.705 71.284 23.7684 71.2514C23.9239 71.1715 22.9417 70.5723 22.6721 70.5827C22.5622 70.5869 22.1877 70.6565 21.8398 70.7374ZM61.3616 70.8861C61.0185 71.099 60.9024 71.2118 60.9821 71.255C61.0453 71.2893 61.5048 71.4029 62.0035 71.5075C62.5021 71.6122 62.9101 71.7251 62.9101 71.7585C62.9101 71.792 62.8151 72.2505 62.699 72.7773C62.5829 73.3043 62.5041 73.7516 62.5238 73.7715C62.5918 73.8397 63.5728 73.1166 63.6142 72.9678C63.7486 72.4854 64.0167 71.0651 63.9803 71.0286C63.9243 70.9723 62.1714 70.5743 61.9925 70.5773C61.9174 70.5785 61.6335 70.7175 61.3616 70.8861ZM24.4893 72.4728C24.0216 72.5772 23.5816 72.6848 23.5114 72.7118C23.4006 72.7546 23.4136 72.898 23.6104 73.8055L23.8369 74.8501L24.3276 75.1678C24.5974 75.3427 24.8444 75.4857 24.8763 75.4857C24.9081 75.4857 24.8422 75.0638 24.7297 74.5483C24.6171 74.0328 24.5431 73.5637 24.5651 73.506C24.5872 73.4482 25.0172 73.3133 25.5206 73.2061C26.0241 73.0988 26.4657 72.9934 26.502 72.9716C26.5839 72.9227 25.5835 72.2656 25.4422 72.2756C25.3858 72.2796 24.957 72.3683 24.4893 72.4728ZM58.6731 72.5932C58.4068 72.7638 58.1886 72.9247 58.1882 72.9507C58.1877 72.9769 58.6275 73.088 59.1653 73.1976C59.703 73.3074 60.1591 73.4389 60.1786 73.49C60.1982 73.5411 60.1221 74.0015 60.0095 74.5131C59.897 75.0247 59.8194 75.4581 59.8371 75.4763C59.8921 75.5324 60.8132 74.9426 60.8803 74.8083C60.9729 74.6228 61.341 72.7816 61.2948 72.7352C61.2511 72.6911 59.3239 72.2641 59.2219 72.2757C59.1863 72.2797 58.9394 72.4227 58.6731 72.5932ZM27.1107 74.2086C26.5541 74.3336 26.0987 74.4719 26.0987 74.5162C26.0987 74.5604 26.1913 75.0446 26.3045 75.5922L26.5104 76.5877L27.0424 76.9226C27.6607 77.3118 27.6509 77.3311 27.404 76.2097C27.3122 75.7929 27.2372 75.3864 27.2372 75.3064C27.2372 75.1913 27.4087 75.1229 28.0594 74.9786C29.4185 74.6772 29.3665 74.7278 28.7396 74.3177C28.4402 74.1218 28.1789 73.9661 28.1589 73.9716C28.139 73.9771 27.6673 74.0837 27.1107 74.2086ZM56.0055 74.3184C55.3865 74.7286 55.3338 74.6778 56.6905 74.9786C57.3328 75.121 57.5121 75.1918 57.5097 75.3021C57.508 75.3797 57.4172 75.8529 57.3077 76.3535C57.1984 76.8541 57.1259 77.2637 57.1467 77.2637C57.3005 77.2637 58.1937 76.5449 58.2284 76.3934C58.528 75.0833 58.6091 74.6942 58.6091 74.5681C58.6091 74.4464 58.4361 74.3833 57.6644 74.2234C57.1448 74.1159 56.6799 74.0131 56.6313 73.9951C56.5827 73.9771 56.3011 74.1225 56.0055 74.3184ZM35.1434 75.2792C34.2846 75.7187 34.1223 75.9659 34.8795 75.6808C34.9315 75.6613 35.0359 75.7073 35.1114 75.7832C35.2324 75.9046 35.2488 76.2288 35.2488 78.487C35.2488 81.2693 35.2653 81.1747 34.7639 81.2823C34.1711 81.4095 34.5384 81.497 35.6655 81.497C36.8278 81.497 37.2921 81.3869 36.5991 81.2757C36.396 81.2431 36.2213 81.1578 36.1734 81.0679C36.1256 80.9783 36.0921 79.6741 36.0921 77.9042C36.0921 75.5494 36.0692 74.8939 35.9867 74.8973C35.9288 74.8996 35.5493 75.0715 35.1434 75.2792ZM39.18 75.0176C38.2449 75.3523 37.6036 76.6857 37.8607 77.7612C38.1345 78.9076 39.2266 79.4427 40.2969 78.9551C40.7334 78.7563 40.7305 78.7567 40.7305 78.9011C40.7305 79.1508 40.1858 80.0865 39.7828 80.5291C39.2986 81.0611 38.8792 81.3072 38.3272 81.3831C38.0746 81.4178 37.9475 81.4767 37.9475 81.5588C37.9475 81.6584 38.0331 81.6714 38.3902 81.6262C39.7687 81.4517 40.9001 80.5789 41.5241 79.2083C42.5706 76.9101 41.1231 74.3223 39.18 75.0176ZM43.7014 75.1108C42.7079 75.6079 42.2077 77.071 42.6766 78.1088C42.8939 78.5899 43.0522 78.7638 43.4646 78.9751C43.8648 79.1802 44.5656 79.1556 45.0556 78.9194C45.2311 78.8347 45.3973 78.7881 45.4249 78.8157C45.5245 78.9158 44.8789 80.1105 44.4942 80.5378C44.0682 81.0111 43.5713 81.2977 43.01 81.3939C42.4876 81.4834 42.5922 81.6284 43.158 81.5989C44.451 81.5315 45.9364 80.2422 46.3829 78.7999C46.853 77.2812 46.3676 75.6624 45.2788 75.1177C44.705 74.8306 44.2654 74.8287 43.7014 75.1108ZM48.4548 77.0152C47.1424 78.8925 46.9711 79.1759 46.9711 79.4706V79.8037H48.3204H49.6698V80.6503V81.497H50.0493H50.4288V80.6503V79.8037H50.8926H51.3564V79.4694V79.1352L50.9137 79.1096L50.4709 79.084L50.4484 76.9885L50.4258 74.893H50.1821C49.9593 74.893 49.811 75.0752 48.4548 77.0152ZM40.1918 75.393C40.7057 75.7077 41.0582 76.8692 40.9264 77.8143C40.8643 78.26 40.8267 78.3303 40.5701 78.4807C40.1783 78.7105 39.5451 78.7157 39.2938 78.4913C38.9268 78.1636 38.7082 77.5371 38.7073 76.8108C38.7063 76.0326 38.8601 75.6287 39.2479 75.3913C39.5779 75.1892 39.8599 75.1898 40.1918 75.393ZM45.0893 75.6026C45.4427 75.9868 45.6218 76.6217 45.6218 77.4907C45.6218 78.0743 45.5938 78.2231 45.4586 78.3588C45.2971 78.521 44.7934 78.7016 44.5002 78.7025C43.823 78.7046 43.2479 77.5472 43.3837 76.4555C43.5234 75.3336 44.4265 74.882 45.0893 75.6026ZM49.641 79.0987C49.623 79.1168 49.1272 79.1208 48.5393 79.1078L47.4703 79.084L48.3262 77.8563C48.7969 77.1811 49.2823 76.4953 49.4048 76.3323L49.6276 76.036L49.6507 77.5509C49.6634 78.3841 49.6591 79.0807 49.641 79.0987Z" fill="#0E4843"/>
</svg>
