<svg width="85" height="85" viewBox="0 0 85 85" fill="none" xmlns="http://www.w3.org/2000/svg">
<path fill-rule="evenodd" clip-rule="evenodd" d="M0 42.5V85H42.5H85V42.5V0H42.5H0V42.5ZM31.911 16.7535L36.089 18.5324L36.7373 17.8057L37.3856 17.0793L39.7267 16.6884L42.0678 16.2976L44.4089 16.6884L46.75 17.0793L47.3983 17.8062L48.0466 18.5331L52.5127 16.6343C54.9691 15.59 57.004 14.7601 57.0347 14.7901C57.0655 14.82 56.4211 16.5316 55.6027 18.5935L54.1146 22.3425L55.6326 26.5757L57.1507 30.8088L55.6679 35.2941C54.8524 37.761 53.7733 40.8713 53.2701 42.2059C52.3985 44.5171 52.2835 44.7307 50.8492 46.7046C50.0209 47.8444 48.5977 49.8401 47.6864 51.1396L46.0297 53.5024L44.0487 54.7104L42.0678 55.9187L40.0869 54.7104L38.1059 53.5024L36.4492 51.1396C35.5379 49.8401 34.1147 47.8444 33.2864 46.7046C31.8521 44.7307 31.7371 44.5171 30.8655 42.2059C30.3623 40.8713 29.2832 37.761 28.4677 35.2941L26.9849 30.8088L28.5029 26.5757L30.021 22.3425L28.5512 18.6346C27.7427 16.5951 27.0822 14.8785 27.083 14.8199C27.085 14.6913 26.7799 14.569 31.911 16.7535ZM35.5127 27.2121C34.5619 27.3591 33.5084 27.5212 33.1716 27.5722L32.5593 27.6651V31.626V35.5871L33.377 37.6832C33.8961 39.0137 34.4931 40.236 35.0114 41.0294C35.7337 42.1351 35.9638 42.6959 37.0045 45.8875L38.1813 49.4956L39.2994 50.6301L40.4174 51.7647H42.0678H43.7182L44.8362 50.6301L45.9543 49.4956L47.1311 45.8875C48.1718 42.6959 48.4019 42.1351 49.1242 41.0294C49.6424 40.236 50.2395 39.0137 50.7585 37.6832L51.5763 35.5871V31.6354V27.6838L51.1801 27.6063C50.9623 27.5637 49.7106 27.3781 48.3987 27.194L46.0137 26.8593L44.0407 28.071L42.0678 29.2828L40.1376 28.0974C37.9609 26.7603 38.1731 26.8009 35.5127 27.2121ZM36.3954 31.7412L38.1059 32.4446L38.4245 33.676C38.9943 35.8784 39.0141 35.6704 38.1925 36.0954C37.7936 36.3018 37.4327 36.4706 37.3903 36.4706C37.3481 36.4706 37.3136 36.1759 37.3136 35.8157C37.3136 35.1843 37.2943 35.1554 36.7733 35.0078C36.4762 34.9235 36.1034 34.8528 35.9449 34.8504C35.7462 34.8476 35.422 34.4825 34.9004 33.6744C34.2157 32.6134 34.1441 32.4247 34.1441 31.6825C34.1441 30.725 33.9095 30.7188 36.3954 31.7412ZM49.9915 31.6924C49.9915 32.4228 49.917 32.6178 49.2352 33.6744C48.7136 34.4825 48.3893 34.8476 48.1907 34.8504C48.0322 34.8528 47.6595 34.9235 47.3623 35.0078C46.8413 35.1554 46.822 35.1843 46.822 35.8157C46.822 36.1759 46.7875 36.4706 46.7452 36.4706C46.7029 36.4706 46.342 36.3018 45.9431 36.0954C45.1215 35.6704 45.1415 35.8793 45.7111 33.6744L46.0297 32.4413L47.9025 31.6687C48.9326 31.2438 49.824 30.8929 49.8835 30.8893C49.943 30.8854 49.9915 31.2469 49.9915 31.6924ZM41.3522 37.7231L42.0678 38.0932L42.8057 37.7115C43.2114 37.5016 43.5912 37.3847 43.6494 37.4518C43.7077 37.5187 44.0966 39.3363 44.5135 41.4907L45.2716 45.4079L44.9515 46.4172C44.7753 46.9724 44.4338 47.8732 44.1925 48.4191C43.7903 49.3296 43.7175 49.4118 43.315 49.4118C43.0348 49.4118 42.7296 49.5547 42.4719 49.8069L42.0678 50.2021L41.6637 49.8069C41.406 49.5547 41.1008 49.4118 40.8206 49.4118C40.4182 49.4118 40.3449 49.3291 39.9411 48.4191C39.6987 47.8732 39.3577 46.9632 39.1834 46.3971L38.8663 45.3676L39.6099 41.5441C40.3999 37.4815 40.429 37.3529 40.5554 37.3529C40.6 37.3529 40.9588 37.5196 41.3522 37.7231ZM17.5927 57.5007C20.805 58.1128 23.0612 61.3878 22.5146 64.6451C22.1706 66.6953 20.8831 68.429 19.0564 69.3022C18.2377 69.6935 17.8684 69.7781 16.7629 69.8276C14.8597 69.9129 13.6576 69.4731 12.2897 68.191C10.9035 66.8916 10.3104 65.3631 10.3981 63.3154C10.4482 62.1457 10.5223 61.8187 10.9275 60.9784C11.7588 59.2547 13.2538 58.0168 15.0551 57.5604C15.9665 57.3296 16.6139 57.3143 17.5927 57.5007ZM42.4249 57.7806C43.2515 58.0772 44.5169 58.8921 44.5169 59.1278C44.5169 59.2865 43.795 60.4412 43.6958 60.4412C43.6615 60.4412 43.4233 60.2778 43.1667 60.0779C42.2637 59.3749 41.3536 59.0601 40.2381 59.0653C37.1375 59.0796 34.9575 62.1956 35.9557 65.1862C36.2312 66.0113 37.1293 67.086 37.9401 67.5606C39.0693 68.2216 39.0402 68.2326 40.034 66.7665L40.9321 65.4412H39.411H37.8898V64.6324V63.8235H39.9625H42.0352L44.1045 60.6679L46.1737 57.5124L47.1478 57.5062L48.1218 57.5L48.0842 63.5662L48.0466 69.6324L47.2202 69.6763L46.3937 69.7204L46.3558 64.8662L46.3178 60.0119L45.2373 61.8025C44.643 62.7874 44.1352 63.645 44.1088 63.7082C44.0823 63.7716 44.5615 63.8235 45.1733 63.8235H46.286L46.2047 64.5237C45.9987 66.2993 45.0372 67.8985 43.6095 68.8404C42.5184 69.5601 41.569 69.8529 40.3257 69.8529C37.8274 69.8529 35.6199 68.4088 34.5309 66.0622C34.1102 65.1557 34.072 64.9513 34.0725 63.6029C34.0728 62.2503 34.1102 62.0516 34.5395 61.1254C35.0879 59.9428 36.3119 58.6418 37.3919 58.0934C38.9123 57.3216 40.8158 57.2034 42.4249 57.7806ZM28.5509 57.7746C29.4856 58.0825 30.4319 58.8443 30.8044 59.5887C31.079 60.1374 31.1506 60.5087 31.1506 61.3835C31.1506 63.1519 30.4899 64.21 28.9576 64.8953C28.6011 65.0547 28.2867 65.2053 28.259 65.2297C28.2312 65.2543 28.8329 66.1718 29.5957 67.2685C30.3587 68.3653 31.0204 69.3625 31.0662 69.4843C31.1355 69.6685 30.9809 69.7059 30.1479 69.7059H29.1465L27.1072 66.7713C25.9855 65.1572 25.0678 63.8006 25.0678 63.7566C25.0678 63.7125 25.6735 63.6765 26.4138 63.6765C28.0075 63.6765 28.8185 63.3421 29.2754 62.4963C29.7062 61.6993 29.5728 60.5744 28.9728 59.9424C28.3697 59.3072 27.7087 59.1176 26.0974 59.1176H24.7833L24.7455 64.375L24.7076 69.6324L23.8792 69.6765L23.0508 69.7206V63.5981V57.4757L25.536 57.5379C26.9029 57.5721 28.2596 57.6785 28.5509 57.7746ZM33.5678 63.6103V69.7206L32.7394 69.6765L31.911 69.6324L31.8734 63.5662L31.8358 57.5H32.7018H33.5678V63.6103ZM52.7808 62.1691C53.8217 64.6968 54.709 66.7647 54.7524 66.7647C54.7959 66.7647 55.1105 66.0863 55.4517 65.2574C55.7927 64.4284 56.657 62.3438 57.3723 60.625L58.6726 57.5H59.8067H60.9407V63.6029V69.7059H60.0783H59.2159L59.1779 65.1103L59.1398 60.5149L57.2701 65.1103L55.4006 69.7059H54.7426H54.0846L52.2182 65.0828L50.3517 60.4599L50.3137 65.0901L50.2756 69.7204L49.4493 69.6763L48.6229 69.6324L48.5853 63.5601L48.5477 57.4881L49.7179 57.5307L50.8882 57.5735L52.7808 62.1691ZM63.1017 63.6103V69.7206L62.2733 69.6765L61.4449 69.6324L61.4073 63.5662L61.3697 57.5H62.2357H63.1017V63.6103ZM69.3636 57.7254C71.1938 58.2121 72.422 59.2519 73.2347 61.0029C73.6607 61.9206 73.6907 62.0919 73.6907 63.6029C73.6907 65.1101 73.6601 65.2859 73.2426 66.1765C72.6205 67.5032 71.7747 68.4241 70.6658 68.9813C69.5677 69.5331 68.4718 69.6903 65.6589 69.6994L63.678 69.7059V63.6029V57.5H66.0969C67.8052 57.5 68.7647 57.5662 69.3636 57.7254ZM14.4517 59.5538C11.1457 61.2599 11.0532 65.8988 14.2888 67.7285C14.9862 68.1228 15.178 68.1618 16.4237 68.1618C17.6695 68.1618 17.8612 68.1228 18.5587 67.7285C19.4144 67.2446 20.0087 66.6196 20.4923 65.6944C20.7638 65.1754 20.8169 64.8441 20.8169 63.6765C20.8169 62.5088 20.7638 62.1775 20.4923 61.6585C20.0065 60.7293 19.4121 60.1063 18.5587 59.6316C17.9232 59.2782 17.5833 59.1959 16.5678 59.1496C15.4269 59.0975 15.2823 59.1251 14.4517 59.5538ZM65.4068 63.6228V68.1279L67.1716 68.0566C69.2069 67.9746 70.1586 67.6562 70.8815 66.8156C71.6694 65.8997 71.9359 65.1841 72.0047 63.801C72.0603 62.6813 72.0254 62.434 71.7148 61.7413C70.8818 59.8841 69.3946 59.1176 66.6243 59.1176H65.4068V63.6228ZM42.4839 66.1397C42.2296 66.524 41.8023 67.1488 41.5343 67.5284L41.0469 68.2184L41.4653 68.0959C42.1403 67.8984 42.5331 67.6506 43.1958 67.0049C43.7397 66.475 44.2288 65.7729 44.2288 65.5221C44.2288 65.4775 43.9402 65.4412 43.5874 65.4412C42.9832 65.4412 42.9192 65.4816 42.4839 66.1397Z" fill="#575757"/>
</svg>
